<svg xmlns="http://www.w3.org/2000/svg" fill="none" viewBox="0 0 60 60"><g fill="#BA1437" fill-rule="evenodd" clip-rule="evenodd"><path d="M45.04 22.836a.528.528 0 0 1-.458-.45c-.736-5.268-5.025-11.849-13.328-11.849-8.928 0-12.6 7.274-13.312 11.856a.528.528 0 0 1-.457.442c-5.9.723-9.893 5.242-9.893 11.457 0 4.532 2.67 8.667 6.85 10.555 2.01.815 3.75.938 4.61.938h6.026a.525.525 0 0 0 .49-.356c.166-.466.381-.907.646-1.317a.556.556 0 0 0-.003-.608 6.167 6.167 0 0 1-1.05-3.43V29.808a6.249 6.249 0 0 1 6.25-6.25 6.249 6.249 0 0 1 6.25 6.25v10.268a6.172 6.172 0 0 1-.997 3.356.559.559 0 0 0 .002.605c.276.425.497.887.659 1.379.071.215.268.37.495.37h5.614c.868 0 2.623-.12 4.688-.945a11.595 11.595 0 0 0 6.787-10.548c0-6.208-3.985-10.726-9.87-11.456Z" opacity=".4"/><path d="M31.411 45.6c-1.035 0-1.875.952-1.875 1.987a1.876 1.876 0 0 0 3.75 0v-.225c0-1.035-.84-1.762-1.875-1.762ZM31.411 27.94c-1.035 0-1.875.84-1.875 1.874v10.268a1.876 1.876 0 0 0 3.75 0V29.814c0-1.035-.84-1.875-1.875-1.875Z"/></g></svg>